# xmcd
#
# Track frame offsets: 
#        150
#        30927
#        52039
#        63012
#        71730
#        85292
#        98137
#        120472
#        143585
#        167400
#        183095
#        196215
#        205405
#        216100
#        226175
#        240712
#        256285
#        269792
#        289415
#        306545
#
# Disc length: 4310 seconds
#
# Revision: 1
# Processed by: cddbd v1.5PL3 Copyright (c) Steve Scherf et al.
# Submitted via: ExactAudioCopy v0.95a5
#
DISCID=2310d414
DTITLE=Marie Rottrova - Plamenaci a Marie Rottrova '75
DYEAR=1975
DGENRE=Rhythmic Soul
TTITLE0=Posledni okamzik
TTITLE1=Lasky zen
TTITLE2=Pysna dama
TTITLE3=Malovana kapela
TTITLE4=Qusimoduv sen I
TTITLE5=Quasimoduv sen II
TTITLE6=Cas motylu
TTITLE7=Dvojite salto
TTITLE8=Tvuj pritel vitr
TTITLE9=Zivot utika
TTITLE10=Knir
TTITLE11=Pojdme,kam nas nohy ponesou
TTITLE12=Ruzovy kabat
TTITLE13=Namaluj muj svet
TTITLE14=Az prijde tvuj cas
TTITLE15=Valku ne!
TTITLE16=On ma
TTITLE17=Kde jsi
TTITLE18=Zitra nepospichej
TTITLE19=Jaka zvlastni laska
EXTD=YEAR: 1975
EXTT0=
EXTT1=
EXTT2=
EXTT3=
EXTT4=
EXTT5=
EXTT6=
EXTT7=
EXTT8=
EXTT9=
EXTT10=
EXTT11=
EXTT12=
EXTT13=
EXTT14=
EXTT15=
EXTT16=
EXTT17=
EXTT18=
EXTT19=
PLAYORDER=
